<svg width="1037" height="226" viewBox="0 0 1037 226" fill="none" xmlns="http://www.w3.org/2000/svg">
<path d="M169.916 0.847496C111.65 0.666863 60.3524 62.7428 41.9866 93.8033C26.7549 115.43 8.11428 182.303 0.697907 213.037C13.0367 197.565 44.41 166.898 71.193 168.007C104.672 169.394 112.895 168.719 150.035 179.97C187.175 191.221 206.408 224.927 259.872 225.346C313.336 225.766 316.69 226.378 356.633 214.84C396.576 203.302 414.199 195.66 481.398 174.037C548.597 152.415 543.42 182.999 575.723 190.68C608.025 198.36 631.518 202.631 723.14 217.843C814.763 233.054 752.512 205.105 794.222 176.896C835.932 148.687 831.816 163.485 908.759 163.374C985.703 163.262 981.001 173.977 1018.97 189.011C1056.93 204.046 1027.8 153.84 990.219 123.869C952.637 93.8975 915.835 67.7675 872.775 30.2089C829.716 -7.3498 757.267 6.40049 718.5 11.6448C679.733 16.8891 549.914 68.8487 469.445 73.3806C388.976 77.9125 242.747 1.07328 169.916 0.847496Z" fill="url(#paint0_linear_688_6)" fill-opacity="0.68"/>
<defs>
<linearGradient id="paint0_linear_688_6" x1="533.422" y1="229.266" x2="535.46" y2="-19.5177" gradientUnits="userSpaceOnUse">
<stop stop-color="#40DDE3" stop-opacity="0.07"/>
<stop offset="0.307692" stop-color="#40DDE3"/>
<stop offset="0.432692" stop-color="#DEDEDE"/>
<stop offset="0.519231" stop-color="#40DDE3"/>
<stop offset="0.639423" stop-opacity="0.25"/>
<stop offset="0.793269" stop-color="#45F7FA" stop-opacity="0.31"/>
<stop offset="0.889423" stop-color="#121213"/>
<stop offset="1" stop-color="#737373"/>
</linearGradient>
</defs>
</svg>
