<svg width="493" height="534" viewBox="0 0 493 534" fill="none" xmlns="http://www.w3.org/2000/svg">
<path d="M20.6285 339.497C-5.60413 368.043 -1.17361 425.777 4.32073 451.076C7.04932 469.892 28.2601 514.086 38.5245 533.831C37.2195 519.66 37.7378 488.174 50.2502 475.589C65.8907 459.859 69.2835 455.463 90.9303 443.1C112.577 430.737 136.118 438.939 160.301 412.878C184.484 386.816 186.26 385.488 199.086 359.809C211.911 334.131 216.441 321.465 237.041 277.105C257.64 232.746 268.843 251.312 286.739 239.456C304.636 227.601 317.07 218.29 364.923 181.22C412.776 144.149 372.473 160.11 378.718 124.829C384.963 89.5491 389.661 99.3239 424.148 61.443C458.635 23.562 461.264 31.4858 484.954 20.6987C508.645 9.9116 473.364 -2.0683 443.239 0.705877C413.114 3.48005 385.038 7.88318 349.098 9.37517C313.159 10.8672 286.721 53.6836 271.64 75.4872C256.559 97.2908 221.27 188.324 187.155 230.254C153.041 272.183 53.4194 303.813 20.6285 339.497Z" fill="url(#paint0_linear_688_110)" fill-opacity="0.4"/>
<defs>
<linearGradient id="paint0_linear_688_110" x1="284.819" y1="280.463" x2="160.742" y2="165.246" gradientUnits="userSpaceOnUse">
<stop stop-color="#40DDE3" stop-opacity="0.07"/>
<stop offset="0.307692" stop-color="#40DDE3"/>
<stop offset="0.432692" stop-color="#DEDEDE"/>
<stop offset="0.519231" stop-color="#40DDE3"/>
<stop offset="0.639423" stop-opacity="0.25"/>
<stop offset="0.793269" stop-color="#45F7FA" stop-opacity="0.31"/>
<stop offset="0.889423" stop-color="#121213"/>
<stop offset="1" stop-color="#737373"/>
</linearGradient>
</defs>
</svg>
