<svg width="417" height="479" viewBox="0 0 417 479" fill="none" xmlns="http://www.w3.org/2000/svg">
<path d="M164.822 25.8574C142.895 -0.181076 94.107 -0.980508 72.4537 1.87458C56.4537 2.77301 17.7307 18.2374 0.369141 25.8574C12.3605 25.8574 38.7415 28.9409 48.3346 41.2749C60.326 56.6925 63.7521 60.1185 72.4537 80.6752C81.1553 101.232 72.4537 121.789 92.4537 145.771C112.454 169.754 113.431 171.467 133.987 185.172C154.544 198.876 164.822 204.015 200.454 226.285C236.085 248.555 219.64 257.12 228.205 274.25C236.771 291.381 243.623 303.372 271.032 349.625C298.441 395.877 288.162 358.19 317.284 366.755C346.406 375.321 337.841 378.747 366.963 413.008C396.085 447.269 389.233 448.982 396.454 471.252C403.675 493.522 416.454 462.687 416.454 435.278C416.454 407.869 414.929 382.173 416.454 349.625C417.979 317.077 384.094 289.668 366.963 274.25C349.832 258.833 276.171 219.433 243.623 185.172C211.075 150.91 192.231 58.4054 164.822 25.8574Z" fill="url(#paint0_linear_688_109)" fill-opacity="0.52"/>
<defs>
<linearGradient id="paint0_linear_688_109" x1="193.944" y1="269.111" x2="307.006" y2="174.893" gradientUnits="userSpaceOnUse">
<stop stop-color="#40DDE3" stop-opacity="0.07"/>
<stop offset="0.307692" stop-color="#40DDE3"/>
<stop offset="0.432692" stop-color="#DEDEDE"/>
<stop offset="0.519231" stop-color="#40DDE3"/>
<stop offset="0.639423" stop-opacity="0.25"/>
<stop offset="0.793269" stop-color="#45F7FA" stop-opacity="0.31"/>
<stop offset="0.889423" stop-color="#121213"/>
<stop offset="1" stop-color="#737373"/>
</linearGradient>
</defs>
</svg>
